<svg id="visual" viewBox="0 0 960 400" width="960" height="400" xmlns="http://www.w3.org/2000/svg" xmlns:xlink="http://www.w3.org/1999/xlink" version="1.1"><rect x="0" y="0" width="960" height="400" fill="#2D383D"></rect><path d="M0 157L32 173.3C64 189.7 128 222.3 192 230.3C256 238.3 320 221.7 384 203.3C448 185 512 165 576 173.7C640 182.3 704 219.7 768 237.8C832 256 896 255 928 254.5L960 254L960 0L928 0C896 0 832 0 768 0C704 0 640 0 576 0C512 0 448 0 384 0C320 0 256 0 192 0C128 0 64 0 32 0L0 0Z" fill="#A6FFF5" stroke-linecap="round" stroke-linejoin="miter"></path></svg>